<svg enable-background="new 0 0 64 64" viewBox="0 0 64 64" xmlns="http://www.w3.org/2000/svg"><g id="_x30_1_Isolation"/><g id="_x30_2_Hospital"/><g id="_x30_3_14_days"/><g id="_x30_4_Physical_distancing"/><g id="_x30_5_Monitoring"/><g id="_x30_6_Stay_home"/><g id="_x30_7_Avoid_close_contact"/><g id="_x30_8_Rapid_test"/><g id="_x30_9_Positive"/><g id="_x31_0_Isolation_room"/><g id="_x31_1_Suspect"/><g id="_x31_2_Medical_kit"/><g id="_x31_3_Negative"/><g id="_x31_4_Vaccine"/><g id="_x31_5_Disinfectant"/><g id="_x31_6_Emergency_call"/><g id="_x31_7_Wash_hand"/><g id="_x31_8_Lab"/><g id="_x31_9_Patient_data"/><g id="_x32_0_No_smoking"/><g id="_x32_1_Drugs"/><g id="_x32_2_Swab"/><g id="_x32_3_Vegetables"/><g id="_x32_4_Own_clothes"/><g id="_x32_5_Sunbathe"/><g id="_x32_6_Emergency_admission"/><g id="_x32_7_Tableware"/><g id="_x32_8_Mask"/><g id="_x32_9_Physical_distancing"/><g id="_x33_0_Thermometer"><g><path d="m31.071 51.38c-.576-5.588 2.394-10.54 6.929-12.906v-10.887c-.927-.376-1.938-.587-3-.587h-20c-4.418 0-8 3.582-8 8v20h7.2 17.811c-.479-1.139-.809-2.352-.94-3.62z" fill="#ff738e"/><circle cx="24" cy="18" fill="#ff738e" r="9"/><path d="m50 38.474v-31.474c0-3.314-2.686-6-6-6-3.314 0-6 2.686-6 6v31.474c-4.535 2.366-7.505 7.318-6.929 12.906.618 5.994 5.455 10.874 11.445 11.537 7.844.869 14.484-5.249 14.484-12.917 0-5.014-2.843-9.357-7-11.526z" fill="#dedee0"/><path d="m42.528 58.882c-3.617-.576-6.584-3.401-7.331-6.986-.848-4.069 1.106-8.024 4.654-9.876l2.149-1.121v-33.899c0-1.105.895-2 2-2 1.105 0 2 .895 2 2v33.899l2.149 1.121c2.993 1.562 4.851 4.62 4.851 7.98 0 5.446-4.861 9.777-10.472 8.882z" fill="#ff738e"/><g fill="#003564"><path d="m6 35.001v20c0 .553.447 1 1 1h24.348c2.034 4.27 6.178 7.372 11.057 7.912.521.058 1.041.086 1.559.086 3.449 0 6.797-1.26 9.371-3.565 2.965-2.655 4.665-6.456 4.665-10.433 0-5.025-2.667-9.613-7-12.117v-30.883c0-3.86-3.141-7-7-7s-7 3.14-7 7v19.236c-.655-.15-1.323-.236-2-.236h-5.026c2.438-1.825 4.026-4.727 4.026-8 0-5.514-4.486-10-10-10s-10 4.486-10 10c0 3.273 1.588 6.175 4.026 8h-3.026c-4.963 0-9 4.038-9 9zm33-28c0-2.757 2.243-5 5-5s5 2.243 5 5v31.475c0 .373.207.714.537.887 3.986 2.079 6.463 6.156 6.463 10.638 0 3.408-1.457 6.668-3.998 8.943-2.575 2.306-5.901 3.366-9.376 2.98-4.367-.484-8.039-3.366-9.687-7.279-.009-.023-.018-.044-.028-.066-.43-1.038-.725-2.144-.844-3.3-.511-4.947 2-9.625 6.396-11.917.33-.173.537-.513.537-.886zm-23 11c0-4.411 3.589-8 8-8s8 3.589 8 8-3.589 8-8 8-8-3.589-8-8zm19 10c.68 0 1.35.099 2 .295v9.588c-4.793 2.767-7.497 8.038-6.924 13.601.089.864.264 1.704.506 2.517h-15.582v-11c0-.553-.447-1-1-1s-1 .447-1 1v11h-5v-19c0-3.86 3.141-7 7-7h20z"/><path d="m34.219 52.102c.834 4.002 4.109 7.125 8.152 7.77.536.086 1.073.128 1.606.128 2.378 0 4.685-.835 6.506-2.39 2.236-1.908 3.517-4.681 3.517-7.609 0-3.734-2.065-7.132-5.388-8.866l-1.612-.841v-33.293c0-1.654-1.346-3-3-3s-3 1.346-3 3v33.293l-1.612.841c-4.023 2.099-6.1 6.507-5.169 10.967zm6.094-9.194 2.149-1.121c.331-.173.538-.514.538-.887v-33.899c0-.551.448-1 1-1s1 .449 1 1v33.899c0 .373.207.714.537.887l2.149 1.121c2.662 1.389 4.314 4.107 4.314 7.093 0 2.342-1.026 4.561-2.815 6.087-1.785 1.523-4.154 2.181-6.5 1.809-3.227-.516-5.844-3.008-6.51-6.203-.744-3.575.919-7.105 4.138-8.786z"/></g></g></g><g id="_x33_1_Treatment"/><g id="_x33_2_Disinfectant"/><g id="_x33_3_Protection"/><g id="_x33_4_Thermal_scanner"/><g id="_x33_5_Hand_sanitizer"/><g id="_x33_6_No_alcohol"/><g id="_x33_7_Oxygen"/><g id="_x33_8_Monitoring"/><g id="_x33_9_Blood_test"/><g id="_x34_0_Isolation"/><g id="_x34_1_Vitamin"/><g id="_x34_2_Tissue"/><g id="_x34_3_Rest"/><g id="_x34_4_Oxygen"/><g id="_x34_5_Antibody"/><g id="_x34_6_Disinfectant"/><g id="_x34_7_Mask"/><g id="_x34_8_Consultation"/><g id="_x34_9_Ambulance"/><g id="_x35_0_Vitamin"/></svg>