<svg height="512" viewBox="0 0 64 64" width="512" xmlns="http://www.w3.org/2000/svg"><g id="_11-Clock" data-name="11-Clock"><path d="m58 32a26 26 0 1 1 -26-26 26 26 0 0 1 26 26z" fill="#fbfbfb"/><path d="m58 32a26 26 0 0 0 -47.135-15.135 25.994 25.994 0 0 1 36.27 36.27 25.961 25.961 0 0 0 10.865-21.135z" fill="#e3effa"/><path d="m32 1a31 31 0 1 1 -31 31 31 31 0 0 1 31-31zm0 57a26 26 0 1 0 -26-26 26 26 0 0 0 26 26z" fill="#fcc369"/><path d="m34 17.2v14.28a1.944 1.944 0 0 1 -.46 1.27l-6.28 7.64a1.808 1.808 0 0 1 -2.9-.26 2.344 2.344 0 0 1 .3-2.83l5.1-6.02a.969.969 0 0 0 .24-.65v-13.43a2.009 2.009 0 1 1 4 0z" fill="#555fa3"/><path d="m24.36 40.13a2.344 2.344 0 0 1 .3-2.83l5.1-6.02a.969.969 0 0 0 .24-.65v-13.43a2.347 2.347 0 0 1 .31-1.166 1.873 1.873 0 0 0 -.31-.034 2.107 2.107 0 0 0 -2 2.2v13.43a.969.969 0 0 1 -.24.65l-5.1 6.02a2.344 2.344 0 0 0 -.3 2.83 1.808 1.808 0 0 0 2.9.26l.35-.426a1.875 1.875 0 0 1 -1.25-.834z" fill="#e3effa"/><path d="m32 4a28 28 0 1 0 28 28 28 28 0 0 0 -28-28zm0 54a26 26 0 1 1 26-26 26 26 0 0 1 -26 26z" fill="#ed9b52"/><g fill="#555fa3"><path d="m33 11v-4.975c-.332-.012-.665-.025-1-.025s-.668.013-1 .025v4.975z"/><path d="m31 53v4.975c.332.012.665.025 1 .025s.668-.013 1-.025v-4.975z"/><path d="m57.975 31h-4.975v2h4.975c.012-.332.025-.665.025-1s-.013-.668-.025-1z"/><path d="m11 31h-4.975c-.012.332-.025.665-.025 1s.013.668.025 1h4.975z"/></g></g></svg>