<svg id="Layer_1" enable-background="new 0 0 64 64" viewBox="0 0 64 64" xmlns="http://www.w3.org/2000/svg"><g><path d="m47.87 11.19v50.63c0 1.14-.92 2.06-2.06 2.06h-43.75c-1.14-.01-2.06-.93-2.06-2.06v-59.64c0-1.14.92-2.06 2.06-2.06h34.9z" fill="#f2f2f2"/><path d="m36.96 11.19v-11.06l10.91 11.06z" fill="#cdd6e0"/><path d="m5.59 7.71h14.82v14.82h-14.82z" fill="#dadde1" transform="matrix(-1 0 0 -1 26.005 30.23)"/><g><g><path d="m25.02 59.17h-17.88c-.85 0-1.54-.6-1.54-1.34s.69-1.34 1.54-1.34h17.88c.85 0 1.54.6 1.54 1.34s-.69 1.34-1.54 1.34z" fill="#c5cdd6"/></g><g><path d="m37.32 50.43h-30.18c-.85 0-1.54-.6-1.54-1.34s.69-1.34 1.54-1.34h30.18c.85 0 1.54.6 1.54 1.34s-.69 1.34-1.54 1.34z" fill="#c5cdd6"/></g><g><path d="m37.32 41.69h-30.18c-.85 0-1.54-.6-1.54-1.34s.68-1.35 1.54-1.35h30.18c.85 0 1.54.6 1.54 1.34s-.69 1.35-1.54 1.35z" fill="#c5cdd6"/></g><g><path d="m37.32 32.95h-30.18c-.85 0-1.54-.6-1.54-1.34s.69-1.34 1.54-1.34h30.18c.85 0 1.54.6 1.54 1.34s-.69 1.34-1.54 1.34z" fill="#c5cdd6"/></g></g><g><path d="m61.64 32.3-.54.59-20.48 22.77-8.88 3.7 2.74-9.23 20.49-22.75.53-.59z" fill="#eeca58"/><path d="m46.64 26.14h2.36v30.7h-2.36z" fill="#e3b428" transform="matrix(-.743 -.669 .669 -.743 55.613 104.313)"/><path d="m64 28.51c0 .74-.24 1.44-.73 1.99l-1.68 1.86-6.14-5.52 1.68-1.86c1.23-1.37 3.61-1.25 5.3.28 1.03.91 1.57 2.12 1.57 3.25z" fill="#ff7058"/><g><path d="m40.62 55.65-6.13-5.52-2.76 9.23z" fill="#e5d6b9"/><path d="m35.34 57.86-2.49-2.24-1.12 3.74z" fill="#5c5c5c"/></g><path d="m61.63 32.31-.49.54-.24-.22-2.02-1.81-1.62-1.46-2.02-1.81-.23-.22.48-.54.24.22 5.66 5.08z" fill="#6b8387"/></g></g></svg>