<svg height="512" viewBox="0 0 48 48" width="512" xmlns="http://www.w3.org/2000/svg" xmlns:xlink="http://www.w3.org/1999/xlink"><linearGradient id="linear-gradient" gradientUnits="userSpaceOnUse" x1="24" x2="24" y1="47" y2="27"><stop offset="0" stop-color="#54a5ff"/><stop offset="1" stop-color="#8ad3fe"/></linearGradient><linearGradient id="linear-gradient-2" gradientUnits="userSpaceOnUse" x1="24" x2="24" y1="21.09" y2=".71"><stop offset="0" stop-color="#d3e6f5"/><stop offset="1" stop-color="#f0f7fc"/></linearGradient><g id="Shopping_Basket" data-name="Shopping Basket"><path d="m37.38 47h-26.76a4 4 0 0 1 -4-3.6l-1.62-16.4h38l-1.64 16.4a4 4 0 0 1 -3.98 3.6z" fill="url(#linear-gradient)"/><g fill="#4795ea"><path d="m24 44a1 1 0 0 1 -1-1v-12a1 1 0 0 1 2 0v12a1 1 0 0 1 -1 1z"/><path d="m18 44a1 1 0 0 1 -1-1v-12a1 1 0 0 1 2 0v12a1 1 0 0 1 -1 1z"/><path d="m12 44a1 1 0 0 1 -1-1v-12a1 1 0 0 1 2 0v12a1 1 0 0 1 -1 1z"/><path d="m30 44a1 1 0 0 1 -1-1v-12a1 1 0 0 1 2 0v12a1 1 0 0 1 -1 1z"/><path d="m36 44a1 1 0 0 1 -1-1v-12a1 1 0 0 1 2 0v12a1 1 0 0 1 -1 1z"/><rect height="4" rx="1" width="42" x="3" y="23"/></g><path d="m33 9.71a9 9 0 0 0 -9.28-9 9.1 9.1 0 0 0 -8.72 8.99 9 9 0 0 0 7.43 8.86l1.12 2.25a.5.5 0 0 0 .9 0l1.12-2.25a9 9 0 0 0 7.43-8.85z" fill="url(#linear-gradient-2)"/><path d="m25.41 9.71 2.3-2.3a1 1 0 0 0 0-1.41 1 1 0 0 0 -1.42 0l-2.29 2.29-2.29-2.29a1 1 0 0 0 -1.42 0 1 1 0 0 0 0 1.41l2.3 2.3-2.3 2.29a1 1 0 0 0 0 1.41 1 1 0 0 0 1.42 0l2.29-2.29 2.29 2.29a1 1 0 0 0 1.42 0 1 1 0 0 0 0-1.41z" fill="#ffb369"/><path d="m5 39a1 1 0 0 1 -.71-1.71l13-13a1 1 0 0 1 1.42 1.42l-13 13a1 1 0 0 1 -.71.29z" fill="#ffb369"/><path d="m43 39a1 1 0 0 0 .71-1.71l-13-13a1 1 0 0 0 -1.42 1.42l13 13a1 1 0 0 0 .71.29z" fill="#ffb369"/></g></svg>