<svg id="Capa_1" enable-background="new 0 0 512 512" height="512" viewBox="0 0 512 512" width="512" xmlns="http://www.w3.org/2000/svg"><g><g><path d="m67.048 186.392h-52.048c-8.284 0-15 6.716-15 15v310.608h67.048z"/><path d="m497 186.392h-52.048v325.608h67.048v-310.608c0-8.284-6.716-15-15-15z"/></g><g><path d="m205.886 435.802h100.228v52.168h-100.228z" transform="matrix(0 1 -1 0 717.886 205.886)"/><path d="m399.952 61.61h-47.224v-46.61c0-8.284-6.716-15-15-15h-161.332c-8.284 0-15 6.716-15 15v46.61h-49.348c-8.284 0-15 6.716-15 15v435.39h102.868v-115.228c0-8.284 6.716-15 15-15h82.168c8.284 0 15 6.716 15 15v115.228h102.868v-435.39c0-8.284-6.716-15-15-15zm-211.875 268.325h-16.154c-8.284 0-15-6.716-15-15s6.716-15 15-15h16.154c8.284 0 15 6.716 15 15s-6.716 15-15 15zm0-60h-16.154c-8.284 0-15-6.716-15-15s6.716-15 15-15h16.154c8.284 0 15 6.716 15 15s-6.716 15-15 15zm0-60h-16.154c-8.284 0-15-6.716-15-15s6.716-15 15-15h16.154c8.284 0 15 6.716 15 15s-6.716 15-15 15zm76 120h-16.154c-8.284 0-15-6.716-15-15s6.716-15 15-15h16.154c8.284 0 15 6.716 15 15s-6.716 15-15 15zm0-60h-16.154c-8.284 0-15-6.716-15-15s6.716-15 15-15h16.154c8.284 0 15 6.716 15 15s-6.716 15-15 15zm0-60h-16.154c-8.284 0-15-6.716-15-15s6.716-15 15-15h16.154c8.284 0 15 6.716 15 15s-6.716 15-15 15zm22.154-89.704h-15.231v15.231c0 8.284-6.716 15-15 15s-15-6.716-15-15v-15.231h-15.231c-8.284 0-15-6.716-15-15s6.716-15 15-15h15.231v-15.231c0-8.284 6.716-15 15-15s15 6.716 15 15v15.231h15.231c8.284 0 15 6.716 15 15s-6.716 15-15 15zm53.846 209.704h-16.154c-8.284 0-15-6.716-15-15s6.716-15 15-15h16.154c8.284 0 15 6.716 15 15s-6.716 15-15 15zm0-60h-16.154c-8.284 0-15-6.716-15-15s6.716-15 15-15h16.154c8.284 0 15 6.716 15 15s-6.716 15-15 15zm0-60h-16.154c-8.284 0-15-6.716-15-15s6.716-15 15-15h16.154c8.284 0 15 6.716 15 15s-6.716 15-15 15z"/></g></g></svg>