<svg id="Capa_1" enable-background="new 0 0 512 512" height="512" viewBox="0 0 512 512" width="512" xmlns="http://www.w3.org/2000/svg"><g><g><path d="m183.145 14.57h205.219c27.805 0 50.345 22.54 50.345 50.345v173.53c0 27.805-22.54 50.345-50.345 50.345h-11.357l3.661 32.777c1.664 14.902-14.724 25.05-27.323 16.92l-77.002-49.697h-93.197c-27.805 0-50.345-22.54-50.345-50.345v-173.531c-.001-27.804 22.539-50.344 50.344-50.344z" fill="#0573ce"/><path d="m212.462 288.79h-29.317c-27.807 0-50.344-22.545-50.344-50.344v-173.537c0-27.799 22.537-50.344 50.344-50.344h29.317c-27.807 0-50.344 22.545-50.344 50.344v173.537c0 27.799 22.537 50.344 50.344 50.344z" fill="#0067c5"/></g><g><path d="m255.563 106.484h-205.218c-27.805 0-50.345 22.54-50.345 50.344v173.53c0 27.805 22.54 50.345 50.345 50.345h11.357l-3.661 32.777c-1.664 14.902 14.724 25.051 27.323 16.92l77.002-49.697h93.197c27.805 0 50.345-22.54 50.345-50.345v-173.53c0-27.804-22.54-50.344-50.345-50.344z" fill="#ffd15b"/><path d="m88.676 428.262-3.312 2.14c-12.602 8.134-28.987-2.014-27.319-16.92l3.658-32.779h-11.359c-27.807 0-50.344-22.537-50.344-50.344v-173.529c0-27.807 22.537-50.344 50.344-50.344h25.321c-27.807 0-50.344 22.537-50.344 50.344v173.529c0 27.807 22.537 50.344 50.344 50.344h11.359l-3.666 32.779c-.668 5.985 1.581 11.208 5.318 14.78z" fill="#ffc344"/></g><g><g><g><path d="m116.134 296.442c-10.081 0-18.253-8.172-18.253-18.253v-7.743c0-18.017 11.345-34.133 28.232-40.104 12.702-4.491 20.887-17.053 19.903-30.546-1.077-14.776-13.041-26.649-27.827-27.617-15.641-1.033-29.576 10.262-31.729 25.695-.193 1.379-.29 2.794-.29 4.202 0 10.081-8.172 18.253-18.253 18.253s-18.253-8.172-18.253-18.253c0-3.09.216-6.202.641-9.247 4.783-34.274 35.649-59.351 70.27-57.079 32.867 2.152 59.458 28.545 61.853 61.391 2.176 29.854-15.976 57.66-44.144 67.619-2.33.824-3.895 3.108-3.895 5.685v7.743c-.002 10.081-8.174 18.254-18.255 18.254z" fill="#0573ce"/></g><path d="m116.134 350.754c-10.081 0-18.253-8.172-18.253-18.253v-.151c0-10.081 8.172-18.253 18.253-18.253s18.253 8.172 18.253 18.253v.151c0 10.081-8.172 18.253-18.253 18.253z" fill="#0573ce"/></g><g fill="#0067c5"><g><path d="m66.438 192.832c-.428 3.045-.638 6.154-.638 9.245 0 7.184 4.148 13.402 10.184 16.375-2.434 1.203-5.17 1.878-8.069 1.878-10.075 0-18.253-8.169-18.253-18.253 0-3.091.219-6.2.647-9.245 4.778-34.281 35.649-59.354 70.267-57.084 1.24.082 2.471.201 3.693.356-29.312 3.61-53.628 26.622-57.831 56.728z"/><path d="m142.249 230.34c-16.885 5.972-28.236 22.091-28.236 40.107v7.741c0 7.184 4.158 13.402 10.193 16.375-2.434 1.203-5.17 1.878-8.069 1.878-10.084 0-18.253-8.169-18.253-18.253v-7.741c0-18.016 11.342-34.135 28.236-40.107 12.7-4.495 20.879-17.049 19.894-30.543-.921-12.691-9.874-23.24-21.754-26.568 3.2-.903 6.592-1.276 10.066-1.049 14.788.966 26.75 12.837 27.826 27.616.985 13.495-7.203 26.049-19.903 30.544z"/></g><path d="m124.206 348.875c-2.434 1.203-5.17 1.878-8.069 1.878-10.084 0-18.253-8.169-18.253-18.253v-.155c0-10.075 8.169-18.253 18.253-18.253 2.899 0 5.635.675 8.069 1.878-6.036 2.981-10.193 9.199-10.193 16.375v.155c0 7.184 4.157 13.402 10.193 16.375z"/></g></g><g><path d="m256.437 170.635h205.219c27.805 0 50.345 22.54 50.345 50.345v173.53c0 27.805-22.54 50.345-50.345 50.345h-11.357l3.661 32.777c1.664 14.902-14.724 25.051-27.323 16.92l-77.002-49.697h-93.197c-27.805 0-50.345-22.54-50.345-50.345v-173.53c-.001-27.805 22.539-50.345 50.344-50.345z" fill="#fe9738"/><path d="m285.754 444.855h-29.317c-27.807 0-50.344-22.545-50.344-50.344v-173.537c0-27.799 22.537-50.344 50.344-50.344h29.317c-27.807 0-50.344 22.545-50.344 50.344v173.537c0 27.799 22.537 50.344 50.344 50.344z" fill="#fe7d43"/></g><g><g><g><path d="m359.048 355.946c-10.081 0-18.253-8.172-18.253-18.253v-7.743c0-18.017 11.345-34.133 28.232-40.104 12.702-4.491 20.887-17.053 19.903-30.546-1.077-14.776-13.041-26.649-27.827-27.617-15.641-1.033-29.576 10.262-31.729 25.695-.193 1.379-.29 2.794-.29 4.202 0 10.081-8.172 18.253-18.253 18.253s-18.253-8.172-18.253-18.253c0-3.09.216-6.202.641-9.247 4.783-34.274 35.649-59.351 70.27-57.079 32.867 2.152 59.458 28.545 61.853 61.391 2.176 29.854-15.976 57.66-44.144 67.619-2.33.824-3.895 3.108-3.895 5.685v7.743c-.002 10.081-8.174 18.254-18.255 18.254z" fill="#f9f7f8"/></g><path d="m359.048 410.258c-10.081 0-18.253-8.172-18.253-18.253v-.151c0-10.081 8.172-18.253 18.253-18.253s18.253 8.172 18.253 18.253v.151c0 10.081-8.172 18.253-18.253 18.253z" fill="#f9f7f8"/></g><g fill="#dedbee"><g><path d="m309.352 252.336c-.428 3.045-.638 6.154-.638 9.245 0 7.184 4.148 13.402 10.184 16.375-2.434 1.204-5.17 1.878-8.069 1.878-10.075 0-18.253-8.169-18.253-18.253 0-3.091.219-6.2.647-9.245 4.778-34.281 35.649-59.354 70.267-57.084 1.24.082 2.471.201 3.693.356-29.312 3.61-53.628 26.622-57.831 56.728z"/><path d="m385.163 289.844c-16.885 5.972-28.236 22.091-28.236 40.107v7.741c0 7.184 4.158 13.402 10.193 16.375-2.434 1.203-5.17 1.878-8.069 1.878-10.084 0-18.253-8.169-18.253-18.253v-7.741c0-18.016 11.342-34.135 28.236-40.107 12.7-4.495 20.879-17.049 19.894-30.543-.921-12.691-9.874-23.24-21.754-26.568 3.2-.903 6.592-1.276 10.066-1.049 14.788.966 26.75 12.837 27.826 27.616.984 13.495-7.203 26.049-19.903 30.544z"/></g><path d="m367.119 408.379c-2.434 1.203-5.17 1.878-8.069 1.878-10.084 0-18.253-8.169-18.253-18.253v-.155c0-10.075 8.169-18.253 18.253-18.253 2.899 0 5.634.675 8.069 1.878-6.036 2.981-10.193 9.199-10.193 16.375v.155c0 7.184 4.158 13.402 10.193 16.375z"/></g></g></g></svg>